<mxfile host="app.diagrams.net" modified="2024-02-14T10:55:45.369Z" agent="Mozilla/5.0 (Windows NT 10.0; Win64; x64) AppleWebKit/537.36 (KHTML, like Gecko) Chrome/121.0.0.0 Safari/537.36" etag="wlTn-6xkXoiYIAXgmBMr" version="23.1.2" type="device">
  <diagram name="PÃ¡gina-1" id="AJxL4MT4w_up4ZSjig4F">
    <mxGraphModel dx="1434" dy="756" grid="1" gridSize="10" guides="1" tooltips="1" connect="1" arrows="1" fold="1" page="1" pageScale="1" pageWidth="827" pageHeight="1169" math="0" shadow="0">
      <root>
        <mxCell id="0" />
        <mxCell id="1" parent="0" />
        <mxCell id="sT686rDcob1VEm0X340i-5" style="edgeStyle=orthogonalEdgeStyle;rounded=0;orthogonalLoop=1;jettySize=auto;html=1;exitX=1;exitY=0.5;exitDx=0;exitDy=0;entryX=0;entryY=0.5;entryDx=0;entryDy=0;endArrow=none;endFill=0;" edge="1" parent="1" source="LNo9l1yJtUT-p1xeYV2q-1" target="sT686rDcob1VEm0X340i-3">
          <mxGeometry relative="1" as="geometry" />
        </mxCell>
        <mxCell id="sT686rDcob1VEm0X340i-7" style="edgeStyle=orthogonalEdgeStyle;rounded=0;orthogonalLoop=1;jettySize=auto;html=1;exitX=0.5;exitY=1;exitDx=0;exitDy=0;entryX=0.5;entryY=0;entryDx=0;entryDy=0;endArrow=none;endFill=0;" edge="1" parent="1" source="LNo9l1yJtUT-p1xeYV2q-1" target="sT686rDcob1VEm0X340i-4">
          <mxGeometry relative="1" as="geometry" />
        </mxCell>
        <mxCell id="sT686rDcob1VEm0X340i-18" style="edgeStyle=orthogonalEdgeStyle;rounded=0;orthogonalLoop=1;jettySize=auto;html=1;exitX=0;exitY=0.75;exitDx=0;exitDy=0;entryX=1;entryY=0.5;entryDx=0;entryDy=0;endArrow=none;endFill=0;" edge="1" parent="1" source="LNo9l1yJtUT-p1xeYV2q-1" target="sT686rDcob1VEm0X340i-16">
          <mxGeometry relative="1" as="geometry" />
        </mxCell>
        <mxCell id="sT686rDcob1VEm0X340i-19" style="edgeStyle=orthogonalEdgeStyle;rounded=0;orthogonalLoop=1;jettySize=auto;html=1;exitX=0;exitY=0.5;exitDx=0;exitDy=0;entryX=1;entryY=0.5;entryDx=0;entryDy=0;endArrow=none;endFill=0;" edge="1" parent="1" source="LNo9l1yJtUT-p1xeYV2q-1" target="sT686rDcob1VEm0X340i-15">
          <mxGeometry relative="1" as="geometry" />
        </mxCell>
        <mxCell id="sT686rDcob1VEm0X340i-20" style="edgeStyle=orthogonalEdgeStyle;rounded=0;orthogonalLoop=1;jettySize=auto;html=1;exitX=0;exitY=0.25;exitDx=0;exitDy=0;entryX=1;entryY=0.5;entryDx=0;entryDy=0;endArrow=none;endFill=0;" edge="1" parent="1" source="LNo9l1yJtUT-p1xeYV2q-1" target="sT686rDcob1VEm0X340i-14">
          <mxGeometry relative="1" as="geometry" />
        </mxCell>
        <mxCell id="LNo9l1yJtUT-p1xeYV2q-1" value="Videojuego" style="rounded=0;whiteSpace=wrap;html=1;" parent="1" vertex="1">
          <mxGeometry x="280" y="250" width="120" height="60" as="geometry" />
        </mxCell>
        <mxCell id="sT686rDcob1VEm0X340i-39" style="edgeStyle=orthogonalEdgeStyle;rounded=0;orthogonalLoop=1;jettySize=auto;html=1;exitX=0.5;exitY=1;exitDx=0;exitDy=0;entryX=0.5;entryY=0;entryDx=0;entryDy=0;endArrow=none;endFill=0;" edge="1" parent="1" source="sT686rDcob1VEm0X340i-1" target="sT686rDcob1VEm0X340i-36">
          <mxGeometry relative="1" as="geometry" />
        </mxCell>
        <mxCell id="sT686rDcob1VEm0X340i-1" value="Plataforma" style="rounded=0;whiteSpace=wrap;html=1;" vertex="1" parent="1">
          <mxGeometry x="590" y="250" width="120" height="60" as="geometry" />
        </mxCell>
        <mxCell id="sT686rDcob1VEm0X340i-8" style="edgeStyle=orthogonalEdgeStyle;rounded=0;orthogonalLoop=1;jettySize=auto;html=1;exitX=0.5;exitY=0;exitDx=0;exitDy=0;entryX=0.5;entryY=1;entryDx=0;entryDy=0;endArrow=none;endFill=0;" edge="1" parent="1" source="sT686rDcob1VEm0X340i-2" target="sT686rDcob1VEm0X340i-4">
          <mxGeometry relative="1" as="geometry" />
        </mxCell>
        <mxCell id="sT686rDcob1VEm0X340i-28" style="edgeStyle=orthogonalEdgeStyle;rounded=0;orthogonalLoop=1;jettySize=auto;html=1;exitX=0;exitY=1;exitDx=0;exitDy=0;entryX=0.5;entryY=0;entryDx=0;entryDy=0;endArrow=none;endFill=0;" edge="1" parent="1" source="sT686rDcob1VEm0X340i-2" target="sT686rDcob1VEm0X340i-27">
          <mxGeometry relative="1" as="geometry" />
        </mxCell>
        <mxCell id="sT686rDcob1VEm0X340i-32" style="edgeStyle=orthogonalEdgeStyle;rounded=0;orthogonalLoop=1;jettySize=auto;html=1;exitX=1;exitY=1;exitDx=0;exitDy=0;entryX=0;entryY=0.5;entryDx=0;entryDy=0;endArrow=none;endFill=0;" edge="1" parent="1" source="sT686rDcob1VEm0X340i-2" target="sT686rDcob1VEm0X340i-31">
          <mxGeometry relative="1" as="geometry">
            <Array as="points">
              <mxPoint x="400" y="533" />
              <mxPoint x="423" y="533" />
            </Array>
          </mxGeometry>
        </mxCell>
        <mxCell id="sT686rDcob1VEm0X340i-33" style="edgeStyle=orthogonalEdgeStyle;rounded=0;orthogonalLoop=1;jettySize=auto;html=1;exitX=0.75;exitY=1;exitDx=0;exitDy=0;entryX=0.5;entryY=0;entryDx=0;entryDy=0;endArrow=none;endFill=0;" edge="1" parent="1" source="sT686rDcob1VEm0X340i-2" target="sT686rDcob1VEm0X340i-30">
          <mxGeometry relative="1" as="geometry" />
        </mxCell>
        <mxCell id="sT686rDcob1VEm0X340i-34" style="edgeStyle=orthogonalEdgeStyle;rounded=0;orthogonalLoop=1;jettySize=auto;html=1;exitX=0.5;exitY=1;exitDx=0;exitDy=0;entryX=0.5;entryY=0;entryDx=0;entryDy=0;endArrow=none;endFill=0;" edge="1" parent="1" source="sT686rDcob1VEm0X340i-2" target="sT686rDcob1VEm0X340i-29">
          <mxGeometry relative="1" as="geometry" />
        </mxCell>
        <mxCell id="sT686rDcob1VEm0X340i-2" value="Usuario" style="rounded=0;whiteSpace=wrap;html=1;" vertex="1" parent="1">
          <mxGeometry x="280" y="470" width="120" height="60" as="geometry" />
        </mxCell>
        <mxCell id="sT686rDcob1VEm0X340i-6" style="edgeStyle=orthogonalEdgeStyle;rounded=0;orthogonalLoop=1;jettySize=auto;html=1;exitX=1;exitY=0.5;exitDx=0;exitDy=0;entryX=0;entryY=0.5;entryDx=0;entryDy=0;endArrow=none;endFill=0;" edge="1" parent="1" source="sT686rDcob1VEm0X340i-3" target="sT686rDcob1VEm0X340i-1">
          <mxGeometry relative="1" as="geometry" />
        </mxCell>
        <mxCell id="sT686rDcob1VEm0X340i-41" style="edgeStyle=orthogonalEdgeStyle;rounded=0;orthogonalLoop=1;jettySize=auto;html=1;exitX=0.5;exitY=0;exitDx=0;exitDy=0;entryX=0.5;entryY=1;entryDx=0;entryDy=0;endArrow=none;endFill=0;" edge="1" parent="1" source="sT686rDcob1VEm0X340i-3" target="sT686rDcob1VEm0X340i-40">
          <mxGeometry relative="1" as="geometry" />
        </mxCell>
        <mxCell id="sT686rDcob1VEm0X340i-3" value="Partida" style="rhombus;whiteSpace=wrap;html=1;" vertex="1" parent="1">
          <mxGeometry x="450" y="240" width="80" height="80" as="geometry" />
        </mxCell>
        <mxCell id="sT686rDcob1VEm0X340i-43" style="edgeStyle=orthogonalEdgeStyle;rounded=0;orthogonalLoop=1;jettySize=auto;html=1;exitX=1;exitY=0.5;exitDx=0;exitDy=0;entryX=0;entryY=0.5;entryDx=0;entryDy=0;endArrow=none;endFill=0;" edge="1" parent="1" source="sT686rDcob1VEm0X340i-4" target="sT686rDcob1VEm0X340i-42">
          <mxGeometry relative="1" as="geometry" />
        </mxCell>
        <mxCell id="sT686rDcob1VEm0X340i-4" value="Jugador" style="rhombus;whiteSpace=wrap;html=1;" vertex="1" parent="1">
          <mxGeometry x="300" y="350" width="80" height="80" as="geometry" />
        </mxCell>
        <mxCell id="sT686rDcob1VEm0X340i-21" style="edgeStyle=orthogonalEdgeStyle;rounded=0;orthogonalLoop=1;jettySize=auto;html=1;exitX=1;exitY=1;exitDx=0;exitDy=0;entryX=0;entryY=0;entryDx=0;entryDy=0;endArrow=none;endFill=0;" edge="1" parent="1" source="sT686rDcob1VEm0X340i-9" target="LNo9l1yJtUT-p1xeYV2q-1">
          <mxGeometry relative="1" as="geometry" />
        </mxCell>
        <mxCell id="sT686rDcob1VEm0X340i-9" value="nombre" style="ellipse;whiteSpace=wrap;html=1;" vertex="1" parent="1">
          <mxGeometry x="160" y="150" width="70" height="40" as="geometry" />
        </mxCell>
        <mxCell id="sT686rDcob1VEm0X340i-24" style="edgeStyle=orthogonalEdgeStyle;rounded=0;orthogonalLoop=1;jettySize=auto;html=1;exitX=0.5;exitY=1;exitDx=0;exitDy=0;entryX=0.75;entryY=0;entryDx=0;entryDy=0;endArrow=none;endFill=0;" edge="1" parent="1" source="sT686rDcob1VEm0X340i-11" target="LNo9l1yJtUT-p1xeYV2q-1">
          <mxGeometry relative="1" as="geometry" />
        </mxCell>
        <mxCell id="sT686rDcob1VEm0X340i-11" value="genero" style="ellipse;whiteSpace=wrap;html=1;" vertex="1" parent="1">
          <mxGeometry x="350" y="170" width="70" height="40" as="geometry" />
        </mxCell>
        <mxCell id="sT686rDcob1VEm0X340i-22" style="edgeStyle=orthogonalEdgeStyle;rounded=0;orthogonalLoop=1;jettySize=auto;html=1;exitX=0.5;exitY=1;exitDx=0;exitDy=0;entryX=0.25;entryY=0;entryDx=0;entryDy=0;endArrow=none;endFill=0;" edge="1" parent="1" source="sT686rDcob1VEm0X340i-12" target="LNo9l1yJtUT-p1xeYV2q-1">
          <mxGeometry relative="1" as="geometry" />
        </mxCell>
        <mxCell id="sT686rDcob1VEm0X340i-12" value="partidas" style="ellipse;whiteSpace=wrap;html=1;" vertex="1" parent="1">
          <mxGeometry x="220" y="120" width="70" height="40" as="geometry" />
        </mxCell>
        <mxCell id="sT686rDcob1VEm0X340i-14" value="tipo" style="ellipse;whiteSpace=wrap;html=1;" vertex="1" parent="1">
          <mxGeometry x="130" y="200" width="70" height="40" as="geometry" />
        </mxCell>
        <mxCell id="sT686rDcob1VEm0X340i-15" value="&lt;b&gt;&lt;u&gt;IDVIdeojuego&lt;/u&gt;&lt;/b&gt;" style="ellipse;whiteSpace=wrap;html=1;" vertex="1" parent="1">
          <mxGeometry x="120" y="250" width="80" height="40" as="geometry" />
        </mxCell>
        <mxCell id="sT686rDcob1VEm0X340i-16" value="descripcion" style="ellipse;whiteSpace=wrap;html=1;" vertex="1" parent="1">
          <mxGeometry x="180" y="280" width="70" height="40" as="geometry" />
        </mxCell>
        <mxCell id="sT686rDcob1VEm0X340i-23" style="edgeStyle=orthogonalEdgeStyle;rounded=0;orthogonalLoop=1;jettySize=auto;html=1;exitX=0.5;exitY=1;exitDx=0;exitDy=0;entryX=0.5;entryY=0;entryDx=0;entryDy=0;endArrow=none;endFill=0;" edge="1" parent="1" source="sT686rDcob1VEm0X340i-17" target="LNo9l1yJtUT-p1xeYV2q-1">
          <mxGeometry relative="1" as="geometry" />
        </mxCell>
        <mxCell id="sT686rDcob1VEm0X340i-17" value="fechacompra" style="ellipse;whiteSpace=wrap;html=1;" vertex="1" parent="1">
          <mxGeometry x="290" y="140" width="70" height="40" as="geometry" />
        </mxCell>
        <mxCell id="sT686rDcob1VEm0X340i-26" style="edgeStyle=orthogonalEdgeStyle;rounded=0;orthogonalLoop=1;jettySize=auto;html=1;exitX=1;exitY=0.5;exitDx=0;exitDy=0;entryX=0;entryY=0.5;entryDx=0;entryDy=0;endArrow=none;endFill=0;" edge="1" parent="1" source="sT686rDcob1VEm0X340i-25" target="sT686rDcob1VEm0X340i-2">
          <mxGeometry relative="1" as="geometry" />
        </mxCell>
        <mxCell id="sT686rDcob1VEm0X340i-25" value="&lt;b&gt;&lt;u&gt;IDUSUARIO&lt;/u&gt;&lt;/b&gt;" style="ellipse;whiteSpace=wrap;html=1;" vertex="1" parent="1">
          <mxGeometry x="150" y="480" width="80" height="40" as="geometry" />
        </mxCell>
        <mxCell id="sT686rDcob1VEm0X340i-27" value="nombreUsuario" style="ellipse;whiteSpace=wrap;html=1;" vertex="1" parent="1">
          <mxGeometry x="190" y="570" width="90" height="45" as="geometry" />
        </mxCell>
        <mxCell id="sT686rDcob1VEm0X340i-29" value="Email" style="ellipse;whiteSpace=wrap;html=1;" vertex="1" parent="1">
          <mxGeometry x="290" y="570" width="90" height="45" as="geometry" />
        </mxCell>
        <mxCell id="sT686rDcob1VEm0X340i-30" value="telefono" style="ellipse;whiteSpace=wrap;html=1;" vertex="1" parent="1">
          <mxGeometry x="390" y="562" width="90" height="45" as="geometry" />
        </mxCell>
        <mxCell id="sT686rDcob1VEm0X340i-31" value="generofavorito" style="ellipse;whiteSpace=wrap;html=1;" vertex="1" parent="1">
          <mxGeometry x="445" y="510" width="90" height="45" as="geometry" />
        </mxCell>
        <mxCell id="sT686rDcob1VEm0X340i-36" value="generofavorito" style="ellipse;whiteSpace=wrap;html=1;" vertex="1" parent="1">
          <mxGeometry x="620" y="330" width="90" height="45" as="geometry" />
        </mxCell>
        <mxCell id="sT686rDcob1VEm0X340i-38" style="edgeStyle=orthogonalEdgeStyle;rounded=0;orthogonalLoop=1;jettySize=auto;html=1;entryX=0.75;entryY=0;entryDx=0;entryDy=0;endArrow=none;endFill=0;" edge="1" parent="1" target="sT686rDcob1VEm0X340i-1">
          <mxGeometry relative="1" as="geometry">
            <mxPoint x="680" y="220" as="sourcePoint" />
          </mxGeometry>
        </mxCell>
        <mxCell id="sT686rDcob1VEm0X340i-37" value="&lt;b&gt;&lt;u&gt;IDPLATAFORMA&lt;/u&gt;&lt;/b&gt;" style="ellipse;whiteSpace=wrap;html=1;" vertex="1" parent="1">
          <mxGeometry x="630" y="170" width="110" height="50" as="geometry" />
        </mxCell>
        <mxCell id="sT686rDcob1VEm0X340i-40" value="&lt;b&gt;&lt;u&gt;IDPARTIDA&lt;/u&gt;&lt;/b&gt;" style="ellipse;whiteSpace=wrap;html=1;" vertex="1" parent="1">
          <mxGeometry x="435" y="165" width="110" height="50" as="geometry" />
        </mxCell>
        <mxCell id="sT686rDcob1VEm0X340i-42" value="&lt;b&gt;&lt;u&gt;IDJUGADOR&lt;/u&gt;&lt;/b&gt;" style="ellipse;whiteSpace=wrap;html=1;" vertex="1" parent="1">
          <mxGeometry x="414" y="365" width="110" height="50" as="geometry" />
        </mxCell>
        <mxCell id="sT686rDcob1VEm0X340i-44" value="1,N" style="text;html=1;strokeColor=none;fillColor=none;align=center;verticalAlign=middle;whiteSpace=wrap;rounded=0;" vertex="1" parent="1">
          <mxGeometry x="390" y="250" width="60" height="30" as="geometry" />
        </mxCell>
        <mxCell id="sT686rDcob1VEm0X340i-47" value="1,M" style="text;html=1;strokeColor=none;fillColor=none;align=center;verticalAlign=middle;whiteSpace=wrap;rounded=0;" vertex="1" parent="1">
          <mxGeometry x="535" y="250" width="60" height="30" as="geometry" />
        </mxCell>
        <mxCell id="sT686rDcob1VEm0X340i-48" value="n:m" style="text;html=1;strokeColor=none;fillColor=none;align=center;verticalAlign=middle;whiteSpace=wrap;rounded=0;" vertex="1" parent="1">
          <mxGeometry x="460" y="320" width="60" height="30" as="geometry" />
        </mxCell>
        <mxCell id="sT686rDcob1VEm0X340i-49" value="1,N" style="text;html=1;strokeColor=none;fillColor=none;align=center;verticalAlign=middle;whiteSpace=wrap;rounded=0;" vertex="1" parent="1">
          <mxGeometry x="290" y="310" width="60" height="30" as="geometry" />
        </mxCell>
        <mxCell id="sT686rDcob1VEm0X340i-50" value="1,M" style="text;html=1;strokeColor=none;fillColor=none;align=center;verticalAlign=middle;whiteSpace=wrap;rounded=0;" vertex="1" parent="1">
          <mxGeometry x="280" y="440" width="60" height="30" as="geometry" />
        </mxCell>
        <mxCell id="sT686rDcob1VEm0X340i-51" value="n:m" style="text;html=1;strokeColor=none;fillColor=none;align=center;verticalAlign=middle;whiteSpace=wrap;rounded=0;" vertex="1" parent="1">
          <mxGeometry x="240" y="375" width="60" height="30" as="geometry" />
        </mxCell>
      </root>
    </mxGraphModel>
  </diagram>
</mxfile>
